<svg width="388.9424682617187px" height="221.61995849609374px" xmlns="http://www.w3.org/2000/svg" viewBox="55.52876586914064 -35.80997924804687 388.9424682617187 221.61995849609374" style="background: rgb(255, 255, 255);" preserveAspectRatio="xMidYMid"><defs><filter id="editing-hover" x="-100%" y="-100%" width="300%" height="300%"><feFlood flood-color="#b6c6f7" result="flood"></feFlood><feComposite operator="in" in2="SourceAlpha" in="flood" result="shadow"></feComposite><feOffset dx="-4.7" dy="-4" in="SourceGraphic" result="offset-1"></feOffset><feOffset dx="4.7" dy="4" in="shadow" result="offset-2"></feOffset><feMerge><feMergeNode in="offset-2"></feMergeNode><feMergeNode in="offset-1"></feMergeNode></feMerge></filter></defs><g filter="url(#editing-hover)"><g transform="translate(118.11000418663025, 133.48500061035156)"><path d="M64.52-52.83L64.52-52.83L64.52-52.83Q64.52-47.50 60.07-44.20L60.07-44.20L60.07-44.20Q55.63-40.89 48.39-40.89L48.39-40.89L48.39-40.89Q45.34-40.89 43.56-41.78L43.56-41.78L43.56-41.78Q44.96-45.09 45.40-49.21L45.40-49.21L45.40-49.21Q45.85-53.34 45.85-54.48L45.85-54.48L45.85-54.48Q45.85-59.82 42.16-59.82L42.16-59.82L42.16-59.82Q39.62-59.82 36.77-56.64L36.77-56.64L36.77-56.64Q33.91-53.47 31.50-48.51L31.50-48.51L31.50-48.51Q26.16-37.08 26.16-25.53L26.16-25.53L26.16-25.53Q26.16-19.18 28.57-16.32L28.57-16.32L28.57-16.32Q30.99-13.46 36.32-13.46L36.32-13.46L36.32-13.46Q43.69-13.46 49.53-19.56L49.53-19.56L49.53-19.56Q51.18-21.46 52.07-23.62L52.07-23.62L52.07-23.62Q56.90-21.08 56.90-14.10L56.90-14.10L56.90-14.10Q56.90-6.99 49.02-2.29L49.02-2.29L49.02-2.29Q40.89 2.54 27.94 2.54L27.94 2.54L27.94 2.54Q2.16 2.54 2.16-24.77L2.16-24.77L2.16-24.77Q2.16-44.70 13.46-56.13L13.46-56.13L13.46-56.13Q24.38-67.31 44.45-67.31L44.45-67.31L44.45-67.31Q64.52-67.31 64.52-52.83ZM69.98-12.70L69.98-12.70L69.98-12.70Q69.98-16.13 71.75-24.77L71.75-24.77L78.49-59.05L70.99-59.05L71.50-62.87L71.50-62.87Q86.74-67.44 101.47-78.61L101.47-78.61L107.57-78.61L104.52-64.77L114.43-64.77L113.28-59.05L103.50-59.05L97.03-24.77L97.03-24.77Q95.38-16.89 95.38-14.22L95.38-14.22L95.38-14.22Q95.38-8.13 100.71-6.86L100.71-6.86L100.71-6.86Q99.44-2.54 94.87 0L94.87 0L94.87 0Q90.30 2.54 83.82 2.54L83.82 2.54L83.82 2.54Q77.34 2.54 73.66-1.52L73.66-1.52L73.66-1.52Q69.98-5.59 69.98-12.70ZM163.32-73.66L163.32-73.66L163.32-73.66Q165.10-76.71 165.10-80.01L165.10-80.01L165.10-80.01Q165.10-85.85 161.54-85.85L161.54-85.85L161.54-85.85Q156.08-85.85 153.80-74.68L153.80-74.68L151.89-64.77L163.45-64.77L162.69-59.05L150.75-59.05L139.32 0L113.67 2.54L125.86-59.05L116.84-59.05L117.98-64.77L126.87-64.77L129.54-74.80L129.54-74.80Q131.83-84.07 141.61-88.39L141.61-88.39L141.61-88.39Q148.72-91.44 160.66-91.44L160.66-91.44L160.66-91.44Q172.59-91.44 177.93-88.39L177.93-88.39L177.93-88.39Q183.26-85.34 183.26-81.28L183.26-81.28L183.26-81.28Q183.26-77.22 180.09-74.68L180.09-74.68L180.09-74.68Q176.91-72.14 173.36-72.14L173.36-72.14L173.36-72.14Q166.37-72.14 163.32-73.66ZM202.69-14.35L202.69-14.35L202.69-14.35Q196.09-7.49 184.02-7.49L184.02-7.49L184.02-7.49Q168.91-7.49 165.74-18.54L165.74-18.54L165.74-18.54Q164.72-21.84 164.72-25.53L164.72-25.53L164.72-25.53Q164.72-29.21 165.48-33.02L165.48-33.02L171.45-64.77L197.23-67.31L190.25-30.35L190.25-30.35Q189.99-28.70 189.61-26.92L189.61-26.92L189.61-26.92Q189.23-25.15 189.23-23.30L189.23-23.30L189.23-23.30Q189.23-21.46 189.87-20.26L189.87-20.26L189.87-20.26Q190.50-19.05 191.39-18.29L191.39-18.29L191.39-18.29Q192.91-17.27 195.64-17.27L195.64-17.27L195.64-17.27Q198.37-17.27 200.72-20.57L200.72-20.57L200.72-20.57Q203.07-23.88 204.22-29.59L204.22-29.59L211.20-64.77L236.22-67.31L226.70-17.40L226.70-17.40Q222.00 6.99 212.34 16.64L212.34 16.64L212.34 16.64Q207.39 21.59 200.98 23.56L200.98 23.56L200.98 23.56Q194.56 25.53 186.31 25.53L186.31 25.53L186.31 25.53Q172.97 25.53 165.35 21.34L165.35 21.34L165.35 21.34Q157.73 17.14 157.73 10.16L157.73 10.16L157.73 10.16Q157.73 4.95 161.67 1.97L161.67 1.97L161.67 1.97Q165.61-1.02 171.70-1.02L171.70-1.02L171.70-1.02Q177.04-1.02 181.10 1.27L181.10 1.27L181.10 1.27Q183.52 2.67 184.66 4.45L184.66 4.45L184.66 4.45Q181.74 6.99 181.74 11.18L181.74 11.18L181.74 11.18Q181.74 16.76 186.82 16.76L186.82 16.76L186.82 16.76Q195.20 16.76 200.03-2.54L200.03-2.54L200.03-2.54Q201.42-8.26 202.69-14.35ZM236.98-7.49L236.98-7.49L236.98-7.49Q236.98-12.32 240.73-14.99L240.73-14.99L240.73-14.99Q244.48-17.65 249.81-17.65L249.81-17.65L249.81-17.65Q255.14-17.65 258.38-14.99L258.38-14.99L258.38-14.99Q261.62-12.32 261.62-7.49L261.62-7.49L261.62-7.49Q261.62-2.67 258.00-0.06L258.00-0.06L258.00-0.06Q254.38 2.54 249.05 2.54L249.05 2.54L249.05 2.54Q243.71 2.54 240.35-0.06L240.35-0.06L240.35-0.06Q236.98-2.67 236.98-7.49Z" fill="#64a8de"></path></g></g><style>text {
  font-size: 64px;
  font-family: Arial Black;
  dominant-baseline: central;
  text-anchor: middle;
}</style></svg>